<svg width="156" height="156" viewBox="0 0 156 156" fill="none" xmlns="http://www.w3.org/2000/svg">
<path d="M82.311 92.3834C82.7943 92.3834 83.1859 91.9763 83.1859 91.4716C83.1859 90.9728 82.795 90.5677 82.311 90.5677C81.8264 90.5677 81.4355 90.9728 81.4355 91.4716C81.4355 91.9763 81.8264 92.3834 82.311 92.3834ZM80.7997 66.1689C82.0842 66.1689 83.1284 65.0943 83.1284 63.773C83.1278 62.4522 82.0842 61.3848 80.7997 61.3848C79.5158 61.3848 78.4709 62.4522 78.4709 63.773C78.4709 65.0943 79.5158 66.1689 80.7997 66.1689ZM68.1719 87.1004C68.062 87.3123 68 87.5527 68 87.8131C68 88.6544 68.6668 89.3406 69.4907 89.3406C70.0819 89.3406 70.5898 88.9872 70.8302 88.478L75.9096 79.4965L73.8005 77.3267L68.1719 87.1004ZM79.1778 86.6972C79.0598 86.9535 78.8712 87.1708 78.634 87.3237C78.3969 87.4766 78.1211 87.5587 77.839 87.5605C77.0216 87.5605 76.3561 86.8742 76.3561 86.033C76.3561 85.7719 76.4174 85.5322 76.5279 85.3196L78.7397 81.3206L74.426 76.9099C72.7706 75.2002 73.9524 73.349 73.9524 73.349L76.274 69.1302L70.1162 69.1373C69.4364 69.1373 68.8936 68.5345 68.8936 67.8418C68.893 67.1562 69.4358 66.554 70.1155 66.554H88.7525C89.4265 66.554 89.9692 67.1575 89.9692 67.8495C89.9692 68.5422 89.4265 69.1386 88.7525 69.1386H81.6435L78.2512 75.2499L81.7056 78.7618C82.9158 79.9565 82.132 81.2986 82.132 81.2986L79.1778 86.6972ZM84.8 89.1694C84.8 89.3408 84.7319 89.5051 84.6107 89.6263C84.4896 89.7475 84.3252 89.8155 84.1538 89.8155H73.1692C72.9979 89.8155 72.8335 89.7475 72.7123 89.6263C72.5912 89.5051 72.5231 89.3408 72.5231 89.1694C72.5231 88.998 72.5912 88.8337 72.7123 88.7125C72.8335 88.5913 72.9979 88.5232 73.1692 88.5232H84.1538C84.3252 88.5232 84.4896 88.5913 84.6107 88.7125C84.7319 88.8337 84.8 88.998 84.8 89.1694Z" fill="#00A5E0"/>
<path d="M156 78C156 121.078 121.078 156 78 156C34.9218 156 0 121.078 0 78C0 34.9218 34.9218 0 78 0C121.078 0 156 34.9218 156 78ZM7.8234 78C7.8234 116.757 39.2425 148.177 78 148.177C116.757 148.177 148.177 116.757 148.177 78C148.177 39.2425 116.757 7.8234 78 7.8234C39.2425 7.8234 7.8234 39.2425 7.8234 78Z" fill="#2E2C2F"/>
<path fill-rule="evenodd" clip-rule="evenodd" d="M77.6923 135.077C109.47 135.077 135.231 109.316 135.231 77.5385C135.231 45.7608 109.47 20 77.6923 20C45.9147 20 20.1538 45.7608 20.1538 77.5385C20.1538 109.316 45.9147 135.077 77.6923 135.077ZM87.2946 63.0913L77.6923 33.5385L68.09 63.0913H37.0163L62.1554 81.3559L52.5532 110.909L77.6923 92.6441L102.831 110.909L93.2291 81.3559L118.368 63.0913H87.2946Z" fill="#2E2C2F"/>
<circle cx="77.6923" cy="129.077" r="3.84615" fill="#F0F7F4"/>
<circle cx="108.461" cy="115.231" r="3.84615" fill="#F0F7F4"/>
<circle cx="124.769" cy="92.3076" r="3.84615" fill="#F0F7F4"/>
<circle cx="29.0769" cy="59.5385" r="3.84615" fill="#F0F7F4"/>
<circle cx="44.7692" cy="38" r="3.84615" fill="#F0F7F4"/>
<circle cx="77.6923" cy="26" r="3.84615" fill="#F0F7F4"/>
<circle cx="124.769" cy="59.5385" r="3.84615" fill="#F0F7F4"/>
<circle cx="108.461" cy="38" r="3.84615" fill="#F0F7F4"/>
<circle cx="44.7692" cy="115.231" r="3.84615" fill="#F0F7F4"/>
<circle cx="29.0769" cy="92.3076" r="3.84615" fill="#F0F7F4"/>
<path d="M37.7468 35.2786L32.3718 28.4029L33.4092 27.592L35.745 30.5799L39.1728 27.9003L36.837 24.9124L37.8778 24.0988L43.2527 30.9745L42.2119 31.7881L39.8683 28.79L36.4405 31.4696L38.7842 34.4677L37.7468 35.2786Z" fill="#00A5E0"/>
<path d="M47.6071 27.741L46.3955 28.4379L44.7665 19.3069L46.0853 18.5483L53.159 24.5476L51.9474 25.2445L46.2477 20.2837L46.1886 20.3177L47.6071 27.741ZM46.1063 24.6616L50.0366 22.4009L50.589 23.3614L46.6587 25.622L46.1063 24.6616Z" fill="#00A5E0"/>
<path d="M56.0091 22.7928L54.0969 14.2776L55.3817 13.9891L57.0455 21.3983L60.9039 20.5318L61.1523 21.6378L56.0091 22.7928Z" fill="#00A5E0"/>
<path d="M64.7513 21.0027L63.8457 12.3226L65.1554 12.1859L65.9433 19.7387L69.8765 19.3284L69.9941 20.4558L64.7513 21.0027Z" fill="#00A5E0"/>
<path d="M81.3544 16.0527C81.3254 16.9841 81.13 17.7795 80.7684 18.439C80.4068 19.0957 79.9237 19.5951 79.3189 19.9372C78.7172 20.2765 78.04 20.4345 77.2876 20.411C76.5322 20.3874 75.8634 20.1875 75.2811 19.8112C74.7018 19.4322 74.2522 18.9023 73.9323 18.2215C73.6125 17.5408 73.467 16.7361 73.496 15.8076C73.5251 14.8762 73.7204 14.0822 74.0819 13.4255C74.4436 12.766 74.9253 12.2666 75.5271 11.9273C76.1318 11.5852 76.8118 11.4259 77.5671 11.4494C78.3196 11.4729 78.9855 11.6742 79.5649 12.0532C80.1472 12.4295 80.5983 12.958 80.9181 13.6388C81.238 14.3167 81.3835 15.1214 81.3544 16.0527ZM80.0511 16.0121C80.0732 15.3022 79.9769 14.7009 79.762 14.2081C79.5501 13.7127 79.2492 13.3338 78.8595 13.0715C78.4727 12.8065 78.0294 12.6662 77.5296 12.6506C77.027 12.6349 76.5745 12.7473 76.1719 12.9877C75.7694 13.2252 75.4455 13.5846 75.2003 14.0658C74.958 14.5443 74.8258 15.1385 74.8036 15.8484C74.7815 16.5583 74.8764 17.1609 75.0883 17.6564C75.3031 18.1492 75.604 18.528 75.9908 18.7931C76.3777 19.0553 76.8224 19.1942 77.325 19.2099C77.8248 19.2255 78.2759 19.1145 78.6784 18.8769C79.0838 18.6366 79.4077 18.2772 79.65 17.7987C79.8952 17.3175 80.0289 16.722 80.0511 16.0121Z" fill="#00A5E0"/>
<path d="M87.0213 21.0118L86.4191 11.9751L87.7753 12.2557L88.0711 19.2186L88.1504 19.235L91.2514 12.9749L92.5951 13.2528L92.9569 20.2337L93.0361 20.2501L96.0671 13.9711L97.4275 14.2526L93.285 22.3076L91.9872 22.0391L91.5129 15.2657L91.4462 15.2519L88.3233 21.2812L87.0213 21.0118Z" fill="#00A5E0"/>
<path d="M99.624 24.0615L102.719 15.9015L107.835 17.8419L107.433 18.9018L103.548 17.4283L102.605 19.9146L106.223 21.2868L105.823 22.3427L102.205 20.9705L101.257 23.4687L105.19 24.9603L104.788 26.0201L99.624 24.0615Z" fill="#00A5E0"/>
<path d="M110.958 28.9197L108.476 27.571L112.642 19.9023L115.203 21.2937C115.955 21.7019 116.517 22.206 116.889 22.806C117.263 23.4035 117.438 24.066 117.414 24.7937C117.395 25.5201 117.169 26.2815 116.736 27.0779C116.302 27.8767 115.783 28.4838 115.179 28.8993C114.577 29.3161 113.918 29.5302 113.201 29.5413C112.485 29.55 111.737 29.3428 110.958 28.9197ZM110.182 27.1886L111.444 27.8741C112.028 28.1914 112.573 28.3454 113.08 28.3359C113.587 28.3239 114.051 28.1605 114.471 27.8455C114.893 27.5281 115.268 27.066 115.598 26.4594C115.924 25.8578 116.106 25.2951 116.141 24.7713C116.179 24.2489 116.069 23.7767 115.81 23.3547C115.551 22.9327 115.142 22.5699 114.583 22.2661L113.25 21.5419L110.182 27.1886Z" fill="#00A5E0"/>
<path d="M54.1736 135.452L53.1308 135.078C53.2332 134.875 53.284 134.682 53.2832 134.499C53.2823 134.316 53.2406 134.146 53.1579 133.989C53.0752 133.832 52.9551 133.693 52.7975 133.572C52.6421 133.451 52.4552 133.352 52.2369 133.273C51.8424 133.132 51.4258 133.089 50.987 133.145C50.5503 133.203 50.1192 133.361 49.6935 133.622C49.27 133.883 48.8815 134.248 48.528 134.716C48.1716 135.189 47.9599 135.62 47.893 136.009C47.8283 136.399 47.8892 136.733 48.0757 137.011C48.2622 137.289 48.5505 137.498 48.9405 137.638C49.1566 137.716 49.3802 137.765 49.6111 137.785C49.8457 137.804 50.0791 137.793 50.3115 137.752C50.5438 137.71 50.7681 137.638 50.9842 137.536C51.2039 137.432 51.4048 137.295 51.5869 137.125L52.6276 137.502C52.3566 137.767 52.0504 137.991 51.7089 138.174C51.3711 138.355 51.0118 138.488 50.6311 138.572C50.254 138.656 49.8705 138.687 49.4806 138.668C49.0906 138.648 48.7074 138.57 48.3308 138.435C47.738 138.223 47.2997 137.914 47.0158 137.51C46.7334 137.103 46.6266 136.629 46.6957 136.087C46.7669 135.546 47.0356 134.966 47.5018 134.348C47.9694 133.728 48.5044 133.244 49.1068 132.896C49.7106 132.546 50.3341 132.335 50.9772 132.263C51.6218 132.189 52.2393 132.258 52.8298 132.47C53.1931 132.6 53.4983 132.766 53.7455 132.968C53.9963 133.168 54.1835 133.399 54.307 133.659C54.432 133.918 54.4849 134.199 54.4659 134.502C54.4484 134.803 54.3509 135.12 54.1736 135.452Z" fill="#00A5E0"/>
<path d="M56.8051 141.789L59.5745 135.064L62.1185 135.562C62.6714 135.671 63.0933 135.85 63.3841 136.101C63.6773 136.353 63.8491 136.655 63.8996 137.008C63.951 137.358 63.8915 137.741 63.7211 138.154C63.5517 138.566 63.3107 138.91 62.9983 139.187C62.689 139.463 62.3153 139.651 61.877 139.752C61.441 139.853 60.9466 139.85 60.3936 139.742L58.4665 139.364L58.8261 138.491L60.6557 138.849C61.0042 138.917 61.307 138.926 61.5642 138.874C61.8237 138.824 62.0415 138.718 62.2176 138.559C62.3938 138.399 62.5337 138.194 62.6373 137.942C62.7419 137.688 62.7802 137.458 62.7523 137.251C62.7267 137.045 62.6238 136.871 62.4437 136.73C62.2668 136.586 62.0006 136.48 61.6451 136.41L60.293 136.145L57.882 142L56.8051 141.789ZM61.5778 139.445L62.0918 142.824L60.8651 142.584L60.386 139.211L61.5778 139.445Z" fill="#00A5E0"/>
<path d="M68.6711 144.219L67.508 144.157L70.935 137.069L72.2009 137.137L74.0008 144.504L72.8377 144.442L71.4503 138.418L71.3936 138.415L68.6711 144.219ZM69.1847 141.399L72.9577 141.601L72.8544 142.519L69.0814 142.317L69.1847 141.399Z" fill="#00A5E0"/>
<path d="M80.7028 144.574L79.5078 137.4L84.0037 137.044L84.1589 137.976L80.7569 138.245L81.121 140.431L84.2008 140.187L84.3554 141.115L81.2756 141.359L81.7967 144.487L80.7028 144.574Z" fill="#00A5E0"/>
<path d="M88.3981 137.499L88.0128 136.636L93.5185 135.467L93.9038 136.329L91.6841 136.801L94.2652 142.578L93.1953 142.806L90.6143 137.028L88.3981 137.499Z" fill="#00A5E0"/>
<path d="M102.457 134.514C102.216 134.261 101.91 134.11 101.539 134.059C101.167 134.006 100.785 134.051 100.394 134.195C100.114 134.298 99.901 134.425 99.7546 134.575C99.6068 134.724 99.5262 134.883 99.513 135.054C99.5005 135.222 99.5573 135.388 99.6835 135.551C99.7893 135.687 99.9184 135.791 100.071 135.863C100.225 135.933 100.391 135.979 100.568 136.001C100.745 136.019 100.923 136.025 101.102 136.016C101.28 136.006 101.447 135.991 101.602 135.97L102.381 135.87C102.634 135.835 102.904 135.813 103.192 135.806C103.48 135.798 103.771 135.821 104.064 135.874C104.356 135.928 104.634 136.025 104.898 136.166C105.163 136.306 105.396 136.506 105.596 136.764C105.849 137.089 105.973 137.415 105.969 137.742C105.967 138.067 105.833 138.373 105.569 138.658C105.306 138.942 104.909 139.182 104.376 139.379C103.865 139.567 103.37 139.662 102.891 139.663C102.412 139.664 101.969 139.577 101.564 139.404C101.157 139.23 100.809 138.973 100.518 138.635L101.551 138.254C101.732 138.455 101.946 138.598 102.194 138.685C102.442 138.77 102.702 138.805 102.974 138.791C103.247 138.775 103.515 138.718 103.78 138.621C104.071 138.513 104.3 138.38 104.467 138.219C104.635 138.056 104.731 137.882 104.754 137.695C104.777 137.506 104.715 137.318 104.57 137.131C104.438 136.961 104.273 136.843 104.073 136.777C103.876 136.71 103.652 136.677 103.401 136.678C103.153 136.678 102.885 136.696 102.599 136.732L101.649 136.844C101.005 136.92 100.429 136.895 99.921 136.769C99.4148 136.643 99.0066 136.38 98.6963 135.979C98.4397 135.648 98.3223 135.32 98.3442 134.994C98.3661 134.668 98.5062 134.37 98.7647 134.099C99.0217 133.827 99.379 133.606 99.8366 133.437C100.299 133.267 100.759 133.185 101.218 133.192C101.68 133.197 102.105 133.282 102.495 133.446C102.884 133.609 103.202 133.843 103.45 134.148L102.457 134.514Z" fill="#00A5E0"/>
</svg>
